<?xml version="1.0" encoding="UTF-8"?>
<svg viewBox="0 0 577 604" version="1.1" xmlns="http://www.w3.org/2000/svg" xmlns:xlink="http://www.w3.org/1999/xlink">
    <g stroke="none" stroke-width="1" fill="none" fill-rule="evenodd">
        <g transform="translate(2.998044, 35.079531)">
            <path d="M289.583556,452.911669 C291.791456,454.104469 293.969656,455.103969 295.404856,455.700169 C313.104656,463.050669 336.363756,465.347869 355.286156,466.085669 C387.553456,467.343769 419.518056,457.908369 447.541356,442.276069 C473.686456,423.426269 501.080156,396.704369 518.683056,369.750869 C525.893256,358.710469 531.921956,346.960869 536.851956,334.735069 C562.449956,278.012069 576.736056,294.269069 564.162156,343.672069 C548.456456,405.379769 509.040156,473.864269 455.707456,509.385469 C137.441956,721.364269 -178.761344,288.584169 119.415856,54.5447692 C174.895856,9.36046924 279.451156,-16.0654308 369.021956,11.2951692 C415.681956,26.1600692 374.400756,34.4822692 351.121156,35.6183692 C287.210156,29.9108692 206.332356,61.5363692 181.973656,125.128569 C175.290956,142.574969 167.721056,162.017269 163.584756,180.255069 C161.805156,188.101969 160.736456,195.569469 162.321656,203.533469 C163.150156,207.695869 164.530056,211.836669 165.851056,215.865869 C172.581356,236.391569 173.291356,252.195269 170.432056,273.253569 C169.882156,277.303669 168.634056,281.138669 167.077856,284.902569 C166.408056,286.523369 164.665056,290.021869 163.621856,292.665169 C166.411156,294.180569 169.522156,295.518869 172.318556,296.749369 C177.680856,299.109169 183.087356,301.363269 188.434056,303.760269 C200.212856,309.040069 216.155456,316.614269 223.158756,327.869769 C228.443656,336.364069 232.899456,346.231469 227.139156,355.823669 C224.818756,359.688169 222.902256,360.426269 220.119756,363.147569 C217.804156,365.412369 215.921956,366.510569 213.642856,368.078069 C216.282456,370.319469 218.126156,373.320469 218.613456,377.668869 C219.409056,384.771869 216.927056,394.383369 211.225456,397.497469 C198.074456,407.744769 177.556456,403.082869 186.838756,412.963269 C193.924256,420.505169 200.791456,423.111669 211.103056,425.083969 C221.463356,427.065369 231.782356,427.024869 242.148656,425.161369 C249.266956,423.881769 255.511956,421.548069 262.373556,419.996669 C269.112356,418.472769 276.144256,420.456369 281.662156,424.441369 C287.630556,428.751769 291.865756,435.436969 291.994756,442.940269 C292.059656,446.700669 291.169856,450.028569 289.583556,452.911669 Z" id="Fill-14" class="fill-current text-black"></path>
            <path d="M203.356256,381.087969 C203.356256,381.087969 193.297756,389.729169 179.429556,390.655469 C165.561056,391.582169 166.098456,390.258669 162.097956,389.098169 C158.096256,387.937669 156.494456,384.665569 160.116556,395.310269 C163.739256,405.954969 181.433356,433.794869 209.837656,439.227769 C238.241656,444.660369 259.179156,435.807469 266.989456,434.042069 C274.798956,432.275769 287.522856,445.764169 270.887156,451.042269 C254.251456,456.320669 236.051056,450.633169 236.051056,450.633169 C236.051056,450.633169 234.319656,460.030669 251.584056,459.093169 C268.849056,458.156669 271.319156,454.918669 271.319156,454.918669 C271.319156,454.918669 283.000456,477.621569 356.165156,480.474369 C397.996856,482.104869 433.761056,467.365869 456.727356,454.442069 C484.050456,434.862969 513.629456,406.030369 532.179656,377.624669 C539.749856,366.033169 546.238956,353.532169 551.647156,340.120269 C536.859656,398.220069 500.817456,460.196769 450.364656,493.800569 C360.289856,553.791369 257.410056,552.158869 162.133056,500.066069 C104.334956,463.783169 73.6533555,423.114769 50.2708555,360.526869 C39.6440555,332.083769 39.2461555,333.644869 35.2299555,305.790469 C1.02515552,133.495069 192.121956,-30.1394308 353.842156,21.2753692 C283.133356,14.9608692 196.624256,50.3834692 169.966356,119.977769 C143.895256,188.040369 146.026356,197.231469 153.607956,220.352569 C161.188856,243.473869 159.309756,258.747569 157.603056,271.316369 C155.896556,283.884869 142.466056,295.706169 155.533456,303.783269 C168.601156,311.860269 204.158456,322.275869 212.372056,335.476869 C220.585756,348.678069 215.836856,348.602069 211.491056,352.852669 C207.145056,357.102969 204.017556,356.451269 201.600456,362.409069 C199.182756,368.367569 197.303156,373.001069 198.962556,375.371069 C200.623356,377.740569 210.092156,378.344069 203.356256,381.087969 Z" id="Fill-16" class="fill-current text-white"></path>
            <path d="M203.356256,381.087969 C203.356256,381.087969 193.297756,389.729169 179.429556,390.655469 C165.561056,391.582169 166.098456,390.258669 162.097956,389.098169 C158.096256,387.937669 156.494456,384.665569 160.116556,395.310269 C163.739256,405.954969 181.433356,433.794869 209.837656,439.227769 C238.241656,444.660369 259.179156,435.807469 266.989456,434.042069 C274.798956,432.275769 287.522856,445.764169 270.887156,451.042269 C254.251456,456.320669 236.051056,450.633169 236.051056,450.633169 C236.051056,450.633169 234.319656,460.030669 251.584056,459.093169 C268.849056,458.156669 271.319156,454.918669 271.319156,454.918669 C271.319156,454.918669 283.000456,477.621569 356.165156,480.474369 C397.996856,482.104869 433.761056,467.365869 456.727356,454.442069 C484.050456,434.862969 513.629456,406.030369 532.179656,377.624669 C539.749856,366.033169 546.238956,353.532169 551.647156,340.120269 C536.859656,398.220069 500.817456,460.196769 450.364656,493.800569 C360.289856,553.791369 257.410056,552.158869 162.133056,500.066069 C104.334956,463.783169 73.6533555,423.114769 50.2708555,360.526869 C39.6440555,332.083769 39.2461555,333.644869 35.2299555,305.790469 C1.02515552,133.495069 192.121956,-30.1394308 353.842156,21.2753692 C283.133356,14.9608692 196.624256,50.3834692 169.966356,119.977769 C143.895256,188.040369 146.026356,197.231469 153.607956,220.352569 C161.188856,243.473869 159.309756,258.747569 157.603056,271.316369 C155.896556,283.884869 142.466056,295.706169 155.533456,303.783269 C168.601156,311.860269 204.158456,322.275869 212.372056,335.476869 C220.585756,348.678069 215.836856,348.602069 211.491056,352.852669 C207.145056,357.102969 204.017556,356.451269 201.600456,362.409069 C199.182756,368.367569 197.303156,373.001069 198.962556,375.371069 C200.623356,377.740569 210.092156,378.344069 203.356256,381.087969 Z" id="Stroke-17" stroke-width="1.9998" class="fill-current text-yellow-200"></path>
            <path d="M204.217356,384.115369 C204.217356,384.115369 201.636756,388.821469 187.527856,392.125569 C173.418956,395.429569 171.813156,394.606669 171.813156,394.606669 C171.813156,394.606669 171.336356,397.267569 173.269856,398.548869 C175.203356,399.830069 178.706456,398.791769 178.706456,398.791769 C178.706456,398.791769 180.893056,399.476369 184.537056,398.873669 C188.180956,398.271069 187.593656,396.735569 187.593656,396.735569 C187.593656,396.735569 185.957456,399.673369 190.783956,398.587669 C195.610556,397.501769 196.302456,396.330769 196.302456,396.330769 C196.302456,396.330769 194.547256,398.627369 198.652456,397.244369 C202.757856,395.861069 203.285956,394.460969 203.285956,394.460969 C203.285956,394.460969 205.620856,397.254869 206.722056,394.042069 C207.823356,390.829569 204.217356,384.115369 204.217356,384.115369 Z" id="Fill-18" class="fill-current text-white"></path>
            <path d="M204.217356,384.115369 C204.217356,384.115369 201.636756,388.821469 187.527856,392.125569 C173.418956,395.429569 171.813156,394.606669 171.813156,394.606669 C171.813156,394.606669 171.336356,397.267569 173.269856,398.548869 C175.203356,399.830069 178.706456,398.791769 178.706456,398.791769 C178.706456,398.791769 180.893056,399.476369 184.537056,398.873669 C188.180956,398.271069 187.593656,396.735569 187.593656,396.735569 C187.593656,396.735569 185.957456,399.673369 190.783956,398.587669 C195.610556,397.501769 196.302456,396.330769 196.302456,396.330769 C196.302456,396.330769 194.547256,398.627369 198.652456,397.244369 C202.757856,395.861069 203.285956,394.460969 203.285956,394.460969 C203.285956,394.460969 205.620856,397.254869 206.722056,394.042069 C207.823356,390.829569 204.217356,384.115369 204.217356,384.115369 Z" id="Stroke-19" stroke-width="0.5" class="stroke-current text-black"></path>
            <path d="M119.600056,306.476769 C119.600056,306.476769 126.175656,299.199369 130.804556,294.060969 C135.433556,288.922669 136.479256,286.726069 136.479256,286.726069 C136.479256,286.726069 140.657856,292.198369 140.255356,298.511669 C139.852756,304.824969 138.764256,307.698169 138.764256,307.698169 C138.764256,307.698169 145.201756,309.693169 149.346556,308.599069 C153.491356,307.504869 155.803356,306.746869 155.803356,306.746869 C155.803356,306.746869 157.645556,309.807769 150.004256,312.489569 C142.362856,315.171769 140.304956,315.493169 140.304956,315.493169 C140.304956,315.493169 158.577856,320.053869 161.422156,321.593569 C164.266756,323.133069 141.610556,319.877469 126.048656,322.507769 C110.486956,325.138069 105.608556,327.091169 105.608556,327.091169 C105.608556,327.091169 113.949756,316.983369 124.594156,313.360369 C135.238856,309.737469 137.152256,301.029969 136.873556,298.296269 C136.595256,295.562169 134.129356,295.178669 134.129356,295.178669 C134.129356,295.178669 124.305856,307.229369 119.600056,306.476769 Z" id="Fill-20" class="fill-current text-black"></path>
            <path d="M119.600056,306.476769 C119.600056,306.476769 126.175656,299.199369 130.804556,294.060969 C135.433556,288.922669 136.479256,286.726069 136.479256,286.726069 C136.479256,286.726069 140.657856,292.198369 140.255356,298.511669 C139.852756,304.824969 138.764256,307.698169 138.764256,307.698169 C138.764256,307.698169 145.201756,309.693169 149.346556,308.599069 C153.491356,307.504869 155.803356,306.746869 155.803356,306.746869 C155.803356,306.746869 157.645556,309.807769 150.004256,312.489569 C142.362856,315.171769 140.304956,315.493169 140.304956,315.493169 C140.304956,315.493169 158.577856,320.053869 161.422156,321.593569 C164.266756,323.133069 141.610556,319.877469 126.048656,322.507769 C110.486956,325.138069 105.608556,327.091169 105.608556,327.091169 C105.608556,327.091169 113.949756,316.983369 124.594156,313.360369 C135.238856,309.737469 137.152256,301.029969 136.873556,298.296269 C136.595256,295.562169 134.129356,295.178669 134.129356,295.178669 C134.129356,295.178669 124.305856,307.229369 119.600056,306.476769 Z" id="Stroke-21" stroke-width="0.5" class="fill-current text-black"></path>
            <path d="M140.047256,266.122169 C140.047256,266.122169 134.706756,254.009469 122.469856,257.757069 C110.233256,261.505069 107.293756,268.561069 102.127656,275.023769 C96.9614555,281.486169 94.2799555,284.484169 94.2799555,284.484169 C94.2799555,284.484169 95.7621555,282.541269 113.117256,276.629869 C130.472656,270.718269 140.047256,266.122169 140.047256,266.122169" id="Fill-22" class="fill-current text-black"></path>
        </g>
        <text font-family="MiltonianTattoo-Regular, Miltonian Tattoo" font-size="100" font-weight="normal" line-spacing="75" class="fill-current text-yellow-400" stroke="black" stroke-width="2">
            <tspan x="235" y="210">loony</tspan>
            <tspan x="237.828" y="295">moon</tspan>
            <tspan x="252.0185" y="380">farm</tspan>
        </text>
    </g>
</svg>